<svg width="24" height="24" viewBox="0 0 24 24" fill="none" xmlns="http://www.w3.org/2000/svg">
<path fill-rule="evenodd" clip-rule="evenodd" d="M13.0127 1.93549C12.4782 1.93549 12.045 1.50223 12.045 0.96775C12.045 0.433266 12.4782 7.80506e-06 13.0127 7.80506e-06C15.8245 7.80506e-06 18.6364 1.07275 20.7818 3.21819C21.8299 4.2663 22.6237 5.48067 23.1626 6.7816C23.7151 8.11494 23.9996 9.544 24 10.9873C24 11.5218 23.5667 11.955 23.0322 11.955C22.4978 11.955 22.0645 11.5218 22.0645 10.9873C22.0645 9.8011 21.8358 8.61935 21.3784 7.51501C20.9394 6.45523 20.2846 5.45778 19.4134 4.58667C17.646 2.81923 15.3294 1.93549 13.0127 1.93549ZM9.86273 14.1373C8.79701 13.0735 7.85244 11.8959 7.04951 10.6263C6.75633 10.1627 6.75943 9.60557 7.05754 9.14522L8.2033 7.37618C8.44775 6.99857 8.4944 6.56773 8.33636 6.14667L6.36551 0.893814C6.05685 0.0711853 5.08006 -0.254315 4.33959 0.218766L1.58999 1.97556C0.335169 2.77733 -0.247412 4.21859 0.0982659 5.66706C1.16215 10.1252 3.48261 14.1373 6.68975 17.3102C9.86273 20.5174 13.8747 22.8379 18.333 23.9017C19.7814 24.2474 21.2227 23.6648 22.0245 22.41L23.7812 19.6604C24.2544 18.9199 23.9288 17.9431 23.1062 17.6345L17.8534 15.6636C17.4323 15.5056 17.0015 15.5522 16.6239 15.7967L14.8548 16.9425C14.3945 17.2406 13.8374 17.2437 13.3737 16.9505C12.1041 16.1476 10.9265 15.203 9.86273 14.1373ZM13.0127 9.77686C13.1764 9.77686 13.3358 9.80686 13.4806 9.86686C13.6167 9.92319 13.7486 10.0112 13.8687 10.1313C13.9889 10.2514 14.0769 10.3834 14.1332 10.5194C14.1932 10.6642 14.2232 10.8236 14.2232 10.9873C14.2232 11.5218 14.6564 11.955 15.1909 11.955C15.7254 11.955 16.1587 11.5218 16.1587 10.9873C16.1587 10.583 16.0782 10.1743 15.9175 9.78601C15.7612 9.40883 15.5343 9.05991 15.2372 8.76281C14.9401 8.46572 14.5912 8.23878 14.214 8.08254C13.8257 7.92175 13.417 7.84133 13.0127 7.84133C12.4782 7.84133 12.045 8.27459 12.045 8.80907C12.045 9.34356 12.4783 9.77686 13.0127 9.77686ZM13.0127 5.85243C13.6817 5.85243 14.3521 5.98302 14.9828 6.24427C15.5807 6.49191 16.1454 6.86333 16.641 7.35901C17.1367 7.85464 17.5081 8.41936 17.7558 9.01723C18.0144 9.64182 18.1476 10.3112 18.1476 10.9873C18.1476 11.5196 18.5792 11.9512 19.1116 11.9512C19.6439 11.9512 20.0756 11.5197 20.0756 10.9873C20.0756 10.0658 19.8971 9.14575 19.5401 8.28388C19.1925 7.4448 18.6821 6.66315 18.0095 5.99057C17.3369 5.31794 16.5553 4.80756 15.7162 4.46004C14.8543 4.10304 13.9342 3.92454 13.0128 3.92454C12.4804 3.92454 12.0488 4.35615 12.0488 4.88851C12.0488 5.42086 12.4804 5.85243 13.0127 5.85243Z" fill="#FDFDFD"/>
</svg>
