<svg width="24" height="25" viewBox="0 0 24 25" fill="none" xmlns="http://www.w3.org/2000/svg">
<path fill-rule="evenodd" clip-rule="evenodd" d="M2.8489 19.9275V15.6667C2.8489 14.5659 3.74232 13.6725 4.84313 13.6725H18.5179C19.6187 13.6725 20.5121 14.5659 20.5121 15.6667V19.9275C21.2417 19.8603 21.925 19.5402 22.4437 19.0227C23.0308 18.4344 23.3607 17.6374 23.361 16.8062V8.82932C23.361 7.99858 23.0305 7.20088 22.4437 6.61287C21.8554 6.02576 21.0583 5.69587 20.2272 5.69553H3.13379C2.30305 5.69553 1.50536 6.026 0.917347 6.61287C0.33024 7.20114 0.000348951 7.9982 0 8.82932V16.8062C0 17.637 0.330473 18.4347 0.917347 19.0227C1.43604 19.5402 2.11926 19.8603 2.8489 19.9275ZM19.0876 9.11421H16.8085C16.5819 9.11421 16.3645 9.20425 16.2042 9.36454C16.0439 9.52482 15.9539 9.74221 15.9539 9.96888C15.9539 10.1956 16.0439 10.4129 16.2042 10.5732C16.3645 10.7335 16.5819 10.8235 16.8085 10.8235H19.0876C19.3143 10.8235 19.5317 10.7335 19.692 10.5732C19.8523 10.4129 19.9423 10.1956 19.9423 9.96888C19.9423 9.74221 19.8523 9.52482 19.692 9.36454C19.5317 9.20425 19.3143 9.11421 19.0876 9.11421ZM3.98846 4.55596H19.3725V1.99423C19.3725 1.46548 19.1629 0.958371 18.7879 0.584595C18.603 0.399181 18.3833 0.252098 18.1414 0.15178C17.8995 0.0514616 17.6402 -0.000117543 17.3783 2.01133e-07H5.9827C5.45394 2.01133e-07 4.94683 0.209679 4.57306 0.584595C4.38764 0.769527 4.24056 0.989241 4.14024 1.23114C4.03992 1.47304 3.98835 1.73236 3.98846 1.99423V4.55596Z" fill="#FDFDFD"/>
<path fill-rule="evenodd" clip-rule="evenodd" d="M19.3724 22.5018V15.6667C19.3724 15.44 19.2823 15.2226 19.122 15.0623C18.9617 14.9021 18.7444 14.812 18.5177 14.812H4.84295C4.61628 14.812 4.39889 14.9021 4.23861 15.0623C4.07833 15.2226 3.98828 15.44 3.98828 15.6667V22.5018C3.98828 23.6026 4.8817 24.496 5.98251 24.496H17.3781C17.907 24.496 18.4143 24.2859 18.7883 23.9119C19.1622 23.5379 19.3724 23.0307 19.3724 22.5018Z" fill="#FDFDFD"/>
</svg>
