<svg width="31" height="24" viewBox="0 0 31 24" fill="none" xmlns="http://www.w3.org/2000/svg">
<path d="M27.7703 1.9791V13.4267L20.6476 16.0287C20.6476 14.3042 19.3115 13.1454 17.8347 13.1454H13.4746C12.3696 12.3744 10.7039 11.0307 7.84375 10.8448V1.9791C7.84508 1.45375 8.05471 0.950367 8.42666 0.579358C8.79861 0.208349 9.30252 -1.68354e-06 9.82787 0H13.2737V4.16414C13.2737 5.40183 14.6259 6.21306 15.735 5.56056L17.6488 4.42032L19.5576 5.56056C20.6637 6.21105 22.0189 5.40836 22.0189 4.16414V0H25.7912C26.8813 0 27.7703 0.889087 27.7703 1.9791Z" fill="#FDFDFD"/>
<path d="M5.25666 21.1246C5.25666 21.2361 5.21237 21.343 5.13352 21.4219C5.05467 21.5007 4.94773 21.545 4.83623 21.545H0.420433C0.308927 21.545 0.201988 21.5007 0.123142 21.4219C0.0442956 21.343 0 21.2361 0 21.1246V10.5746C0 10.343 0.188366 10.1547 0.420433 10.1547H4.83623C5.0683 10.1547 5.25666 10.343 5.25666 10.5746V21.1246ZM29.4237 16.6972L17.9455 22.635C15.4304 23.937 12.3673 23.828 9.94873 22.3507L6.26128 20.1014V11.8294H7.23073C10.1471 11.8294 11.8259 13.2183 13.0264 14.0591C13.1108 14.1179 13.2112 14.1495 13.3142 14.1495H17.835C18.3137 14.1495 18.7729 14.3394 19.1119 14.6774C19.4509 15.0154 19.642 15.4741 19.6433 15.9528C19.6433 16.9373 18.8401 17.7616 17.835 17.7616H12.9776C12.8444 17.7616 12.7167 17.8146 12.6225 17.9088C12.5283 18.003 12.4753 18.1307 12.4753 18.2639C12.4753 18.3972 12.5283 18.5249 12.6225 18.6191C12.7167 18.7133 12.8444 18.7663 12.9776 18.7663H17.835C18.3575 18.7665 18.8696 18.6209 19.3137 18.3456C19.7579 18.0704 20.1163 17.6766 20.3485 17.2086L28.3061 14.3017C28.6082 14.1743 28.947 14.1642 29.2562 14.2732C29.5655 14.3823 29.8229 14.6027 29.9783 14.8914C30.0617 15.0461 30.1136 15.2159 30.1309 15.3908C30.1482 15.5657 30.1305 15.7424 30.0789 15.9104C30.0273 16.0784 29.9428 16.2345 29.8303 16.3696C29.7178 16.5047 29.5796 16.6161 29.4237 16.6972ZM21.0146 0V4.16213C21.0146 4.64435 20.4887 4.94322 20.0743 4.69558L17.9651 3.4373C17.8688 3.37983 17.7587 3.34948 17.6466 3.34948C17.5345 3.34948 17.4244 3.37983 17.3281 3.4373L15.2184 4.69558C15.1241 4.75173 15.0165 4.78189 14.9067 4.78299C14.7969 4.78409 14.6888 4.75609 14.5933 4.70185C14.4978 4.6476 14.4184 4.56904 14.3631 4.47416C14.3079 4.37927 14.2787 4.27144 14.2786 4.16163V0H21.0146Z" fill="#FDFDFD"/>
</svg>
