<svg width="24" height="23" viewBox="0 0 24 23" fill="none" xmlns="http://www.w3.org/2000/svg">
<path d="M0 15.1857C0.00778537 15.9119 0.594263 16.4988 1.32053 16.5073H22.6794C23.4057 16.4988 23.9922 15.9119 23.9999 15.1857V14.0488H0V15.1857ZM22.6795 0H1.32059C0.602517 0 0 0.554927 0 1.27294V13.2293H24V1.27294C24 0.554927 23.3975 0 22.6795 0ZM17.5696 21.2488H14.8683V17.3268H9.13171V21.2488H6.73815C6.41479 21.2488 6.15278 21.5108 6.15278 21.8341C6.15278 22.1574 6.41479 22.4195 6.73815 22.4195H17.5696C17.893 22.4195 18.155 22.1574 18.155 21.8341C18.155 21.5108 17.893 21.2488 17.5696 21.2488Z" fill="#FDFDFD"/>
</svg>
