<svg width="24" height="22" viewBox="0 0 24 22" fill="none" xmlns="http://www.w3.org/2000/svg">
<path d="M19.68 18.1999H4.32C3.52608 18.1999 2.88 18.846 2.88 19.6399C2.88 20.4338 3.52608 21.0799 4.32 21.0799H19.68C20.4739 21.0799 21.12 20.4338 21.12 19.6399C21.12 18.846 20.4739 18.1999 19.68 18.1999ZM22.08 3.79992C21.0211 3.79992 20.16 4.66106 20.16 5.71992C20.16 6.4313 20.5536 7.04662 21.1305 7.37878C20.0198 10.0092 18.287 11.6229 16.6675 11.477C14.8665 11.3302 13.3977 9.20086 12.5875 5.63831C13.6262 5.37525 14.4 4.43925 14.4 3.31992C14.4 1.99608 13.3238 0.919922 12 0.919922C10.6761 0.919922 9.59995 1.99608 9.59995 3.31992C9.59995 4.4393 10.3737 5.3753 11.4124 5.63831C10.6022 9.20086 9.13336 11.3302 7.33242 11.477C5.71964 11.6229 3.97913 10.0092 2.86941 7.37878C3.44634 7.04662 3.83995 6.43125 3.83995 5.71992C3.83995 4.66106 2.97881 3.79992 1.91995 3.79992C0.861141 3.79992 0 4.66106 0 5.71992C0 6.70491 0.748781 7.50937 1.70494 7.61878L3.55392 17.2399H20.4461L22.295 7.61878C23.2512 7.50937 24 6.70491 24 5.71992C24 4.66106 23.1389 3.79992 22.08 3.79992Z" fill="#FDFDFD"/>
</svg>
