<svg width="24" height="23" viewBox="0 0 24 23" fill="none" xmlns="http://www.w3.org/2000/svg">
<path d="M23.9732 10.4824C23.8918 9.95962 23.6439 9.47708 23.2664 9.10647C22.8888 8.73587 22.4018 8.49699 21.8776 8.42533H15.325C15.2567 8.42506 15.1895 8.40847 15.1289 8.37695C15.0683 8.34543 15.0162 8.29989 14.9768 8.24413C14.9373 8.18836 14.9118 8.12398 14.9023 8.05636C14.8928 7.98873 14.8996 7.91982 14.9222 7.85536C15.1599 7.21776 15.3491 6.56306 15.4879 5.89687C16.105 3.57498 15.8316 1.61993 13.7651 0.299986C13.464 0.113117 13.118 0.0111574 12.7637 0.00490786C12.4094 -0.00134173 12.0601 0.0883515 11.7526 0.264486C11.4451 0.440621 11.191 0.696639 11.0172 1.00542C10.8434 1.3142 10.7563 1.66425 10.7652 2.01848C10.7712 2.96215 10.9881 4.47965 10.6024 5.35261C10.001 6.96368 9.22806 8.50535 8.29677 9.95098L7.82964 10.4524C8.13999 10.8971 8.3047 11.4272 8.30105 11.9695V20.879C8.30006 21.3767 8.16218 21.8645 7.9025 22.289C8.39675 22.5614 8.94965 22.7099 9.51385 22.7218H19.5634C20.0955 22.7324 20.6157 22.5635 21.0402 22.2425C21.4646 21.9214 21.7687 21.4668 21.9033 20.9519C22.0201 20.397 21.9188 19.8185 21.6204 19.3363C22.145 19.1152 22.5631 18.6987 22.7861 18.1749C22.9141 17.8649 22.9702 17.53 22.9502 17.1952C22.9301 16.8605 22.8345 16.5346 22.6704 16.2421C23.2012 16.0185 23.6229 15.5952 23.8446 15.0636C24.0004 14.641 24.0291 14.1821 23.927 13.7434C23.825 13.3047 23.5967 12.9056 23.2704 12.5951C23.5451 12.3229 23.7519 11.9897 23.874 11.6227C23.9961 11.2556 24.0301 10.865 23.9732 10.4824ZM5.60975 10.131H0.428552C0.314997 10.1313 0.20619 10.1766 0.125895 10.2569C0.0455989 10.3372 0.00033914 10.446 0 10.5595V22.289C0.00033914 22.4025 0.0455989 22.5113 0.125895 22.5916C0.20619 22.6719 0.314997 22.7172 0.428552 22.7175H5.60975C5.93444 22.7171 6.25319 22.6304 6.53333 22.4662C6.81347 22.3021 7.04492 22.0664 7.20396 21.7833C7.3626 21.5084 7.44542 21.1964 7.44395 20.879V11.9695C7.44395 11.4826 7.25084 11.0156 6.90698 10.671C6.56313 10.3263 6.0966 10.1321 5.60975 10.131ZM18.2135 3.21414C18.7247 3.21493 19.2147 3.41837 19.5762 3.77986C19.9377 4.14134 20.1411 4.6314 20.1419 5.14262C20.1419 5.25628 20.1871 5.36529 20.2675 5.44565C20.3478 5.52602 20.4568 5.57117 20.5705 5.57117C20.6842 5.57117 20.7932 5.52602 20.8735 5.44565C20.9539 5.36529 20.999 5.25628 20.999 5.14262C20.9998 4.6314 21.2033 4.14134 21.5648 3.77986C21.9263 3.41837 22.4163 3.21493 22.9275 3.21414C23.0412 3.21414 23.1502 3.16899 23.2306 3.08862C23.3109 3.00825 23.3561 2.89925 23.3561 2.78559C23.3561 2.67193 23.3109 2.56292 23.2306 2.48256C23.1502 2.40219 23.0412 2.35704 22.9275 2.35704C22.4163 2.35624 21.9263 2.15281 21.5648 1.79132C21.2033 1.42983 20.9998 0.939774 20.999 0.428552C20.999 0.314893 20.9539 0.205889 20.8735 0.12552C20.7932 0.0451508 20.6842 0 20.5705 0C20.4568 0 20.3478 0.0451508 20.2675 0.12552C20.1871 0.205889 20.1419 0.314893 20.1419 0.428552C20.1411 0.939774 19.9377 1.42983 19.5762 1.79132C19.2147 2.15281 18.7247 2.35624 18.2135 2.35704C18.0998 2.35704 17.9908 2.40219 17.9104 2.48256C17.8301 2.56292 17.7849 2.67193 17.7849 2.78559C17.7849 2.89925 17.8301 3.00825 17.9104 3.08862C17.9908 3.16899 18.0998 3.21414 18.2135 3.21414ZM3.64269 3.21414C4.15391 3.21493 4.64397 3.41837 5.00546 3.77986C5.36695 4.14134 5.57038 4.6314 5.57118 5.14262C5.57118 5.25628 5.61633 5.36529 5.69669 5.44565C5.77706 5.52602 5.88607 5.57117 5.99973 5.57117C6.11339 5.57117 6.22239 5.52602 6.30276 5.44565C6.38313 5.36529 6.42828 5.25628 6.42828 5.14262C6.42907 4.6314 6.63251 4.14134 6.994 3.77986C7.35548 3.41837 7.84554 3.21493 8.35676 3.21414C8.47042 3.21414 8.57942 3.16899 8.65979 3.08862C8.74016 3.00825 8.78531 2.89925 8.78531 2.78559C8.78531 2.67193 8.74016 2.56292 8.65979 2.48256C8.57942 2.40219 8.47042 2.35704 8.35676 2.35704C7.84554 2.35624 7.35548 2.15281 6.994 1.79132C6.63251 1.42983 6.42907 0.939774 6.42828 0.428552C6.42828 0.314893 6.38313 0.205889 6.30276 0.12552C6.22239 0.0451508 6.11339 0 5.99973 0C5.88607 0 5.77706 0.0451508 5.69669 0.12552C5.61633 0.205889 5.57118 0.314893 5.57118 0.428552C5.57038 0.939774 5.36695 1.42983 5.00546 1.79132C4.64397 2.15281 4.15391 2.35624 3.64269 2.35704C3.52903 2.35704 3.42003 2.40219 3.33966 2.48256C3.25929 2.56292 3.21414 2.67193 3.21414 2.78559C3.21414 2.89925 3.25929 3.00825 3.33966 3.08862C3.42003 3.16899 3.52903 3.21414 3.64269 3.21414Z" fill="#FDFDFD"/>
</svg>
