<svg width="30" height="30" viewBox="0 0 30 30" fill="none" xmlns="http://www.w3.org/2000/svg">
<path d="M20.6475 14.0376H20.1143V16.1221H20.6475C21.9778 16.0695 21.9768 14.0897 20.6475 14.0376Z" fill="#FDFDFD"/>
<path d="M29.957 11.278C29.916 11.147 29.847 11.0274 29.7552 10.9281C29.6633 10.8287 29.551 10.7523 29.4267 10.7044L21.159 7.5221L15.6893 0.342811C15.3589 -0.11427 14.641 -0.11427 14.3107 0.342811L8.84094 7.5221L0.573374 10.7044C0.449013 10.7523 0.336701 10.8287 0.244852 10.9281C0.153004 11.0274 0.0840015 11.147 0.0430162 11.278C0.0020309 11.4089 -0.0098744 11.5478 0.00819245 11.6842C0.0262593 11.8206 0.0738298 11.951 0.147339 12.0657L5.03411 19.6852L5.39446 28.8313C5.3999 28.9689 5.43525 29.1034 5.49787 29.2248C5.56049 29.3462 5.64876 29.4512 5.75606 29.5322C5.86336 29.6131 5.98691 29.6678 6.11745 29.6921C6.24799 29.7164 6.38214 29.7097 6.50985 29.6726L15 27.202L23.4901 29.6726C23.6178 29.7097 23.7519 29.7164 23.8825 29.6921C24.013 29.6678 24.1366 29.6131 24.2439 29.5322C24.3512 29.4512 24.4394 29.3462 24.502 29.2248C24.5647 29.1034 24.6 28.9689 24.6055 28.8313L24.9658 19.6852L29.8526 12.0657C29.9261 11.9511 29.9737 11.8207 29.9918 11.6842C30.0099 11.5478 29.998 11.4089 29.957 11.278ZM10.293 14.0381H9.75975V18.9897C9.71651 20.1991 8.04477 20.1982 8.00194 18.9897V14.0381H7.46874C6.30384 13.9932 6.30472 12.2576 7.46874 12.2132H10.293C11.4579 12.2581 11.457 13.9936 10.293 14.0381ZM17.291 17.035C17.1525 20.8352 11.9051 20.8327 11.7676 17.035V15.0804C11.902 11.2783 17.1595 11.2843 17.291 15.0804V17.035ZM20.6484 17.9475H20.1152V18.9897C20.072 20.1991 18.4003 20.1982 18.3574 18.9897V13.1256C18.3574 12.6217 18.7509 12.2132 19.2363 12.2132H20.6484C24.3081 12.3578 24.3053 17.8042 20.6484 17.9475Z" fill="#FDFDFD"/>
<path d="M14.5293 14.0376C13.9739 14.0376 13.5254 14.5039 13.5254 15.0798V17.0345C13.5763 18.4159 15.483 18.4147 15.5332 17.0345V15.0798C15.5332 14.502 15.0829 14.0376 14.5293 14.0376Z" fill="#FDFDFD"/>
</svg>
