<svg width="24" height="30" viewBox="0 0 24 30" fill="none" xmlns="http://www.w3.org/2000/svg">
<path d="M18.8627 7.07282C16.587 4.67964 15.448 3.3339 16.4883 1.2532C16.5543 1.12118 16.5855 0.974475 16.5789 0.827022C16.5722 0.679568 16.528 0.536258 16.4504 0.410699C16.3728 0.28514 16.2644 0.181499 16.1355 0.109619C16.0066 0.0377391 15.8614 5.01677e-06 15.7138 0C12.4822 0 11.1067 2.6808 10.2062 4.30826C9.45423 5.66739 8.95025 6.4927 8.29363 6.4927C7.591 6.4927 7.32856 6.05158 7.3046 5.49865C7.31996 4.7671 6.44154 4.36027 5.88416 4.83839C2.85577 7.34658 -0.17193 12.921 0.00760974 17.5615C0.00749428 24.1761 5.38901 29.5577 12.0037 29.5577C18.6326 29.5577 24 24.1385 24 17.5614C23.9999 12.4755 21.1515 9.47981 18.8627 7.07282ZM12.0037 25.8475C7.43472 25.8475 3.71756 22.1304 3.71756 17.5614C4.13414 6.5838 19.875 6.58674 20.2899 17.5615C20.2899 22.1304 16.5727 25.8475 12.0037 25.8475Z" fill="#FDFDFD"/>
<path d="M17.569 16.6955H18.5008C18.347 15.535 17.8882 14.4695 17.208 13.5821C16.3664 14.3657 15.2001 13.1985 15.9835 12.3574C15.096 11.6771 14.0305 11.2183 12.8698 11.0645V11.9963C12.8698 12.4746 12.4821 12.8623 12.0039 12.8623C11.5256 12.8623 11.1379 12.4746 11.1379 11.9963V11.0645C9.97616 11.2185 8.90972 11.6781 8.02178 12.3594C8.69745 13.1855 7.62702 14.2548 6.80172 13.5795C6.12039 14.4674 5.66086 15.5338 5.50684 16.6956H6.43865C6.91689 16.6956 7.3046 17.0833 7.3046 17.5615C7.3046 18.0398 6.91689 18.4275 6.43865 18.4275H5.50684C5.66086 19.5892 6.12039 20.6557 6.80172 21.5436C7.62777 20.868 8.69716 21.9384 8.02172 22.7636C8.90966 23.445 9.9761 23.9045 11.1379 24.0585V23.1266C11.1379 22.6484 11.5256 22.2607 12.0038 22.2607C12.482 22.2607 12.8698 22.6484 12.8698 23.1266V24.0584C14.0314 23.9044 15.0979 23.4449 15.9859 22.7636C15.3102 21.9374 16.3806 20.8682 17.206 21.5435C17.8873 20.6556 18.3468 19.5891 18.5008 18.4274H17.569C16.4215 18.385 16.4219 16.7378 17.569 16.6955ZM14.935 15.855L12.6161 18.1738C12.4538 18.3362 12.2335 18.4274 12.0039 18.4274C11.7742 18.4274 11.554 18.3362 11.3916 18.1738L10.0003 16.7825C9.21921 15.9418 10.3834 14.7764 11.2249 15.5579L12.0039 16.3369L13.7104 14.6304C14.5515 13.849 15.7162 15.0139 14.935 15.855Z" fill="#FDFDFD"/>
</svg>
