<svg width="54" height="66" viewBox="0 0 54 66" fill="none" xmlns="http://www.w3.org/2000/svg">
<path fill-rule="evenodd" clip-rule="evenodd" d="M3.52488 63.9711L3.96947 64.0854C3.87771 64.4516 3.70922 64.7318 3.46065 64.9229C3.21375 65.1139 2.91847 65.209 2.57565 65.209C2.03431 65.2073 1.6356 65.0363 1.38036 64.6951C1.12595 64.3532 1 63.9353 1 63.4406C1.00167 62.9018 1.14764 62.4814 1.44459 62.1803C1.73986 61.8775 2.12022 61.7273 2.58816 61.729C2.92515 61.729 3.20791 61.8166 3.4398 61.9918C3.67002 62.1678 3.82933 62.4088 3.91608 62.7158L3.47567 62.815C3.32636 62.3471 3.03442 62.1127 2.60401 62.1119C2.22115 62.1119 1.93338 62.2312 1.74403 62.4705C1.55469 62.7116 1.4571 63.0302 1.45626 63.4256C1.45543 63.9002 1.55469 64.2539 1.75404 64.4808C1.95256 64.7093 2.21615 64.8244 2.53895 64.8253C2.78585 64.8253 2.99688 64.7544 3.17372 64.6117C3.35055 64.4674 3.46816 64.2547 3.52488 63.9711ZM14.7615 65.1708L14.7656 62.2055L13.6562 62.2038L13.6571 61.8076L16.3246 61.8109V62.208L15.2094 62.2063L15.2044 65.1716L14.7615 65.1708ZM26.6068 61.8287L26.2014 61.8271L26.1973 65.1886L26.6419 65.1902L28.4377 62.5369L28.4327 65.1936H28.8373L28.8423 61.8329L28.3952 61.8321L26.601 64.4904L26.6068 61.8287ZM39.2192 61.8488L41.3221 61.8522L41.3179 65.2153L40.8716 65.2137L40.8783 62.2492L39.6605 62.2475L39.6572 63.98C39.6572 64.332 39.6405 64.5889 39.6071 64.7532C39.5746 64.9176 39.5053 65.0435 39.3986 65.1336C39.2935 65.2253 39.16 65.2712 38.9965 65.2712C38.9006 65.2704 38.7822 65.252 38.6445 65.2153L38.7213 64.8191C38.7947 64.8492 38.8572 64.8633 38.9098 64.8633C39.0107 64.8633 39.0866 64.8266 39.1367 64.7516C39.1884 64.6757 39.2134 64.4972 39.2134 64.2161L39.2192 61.8488ZM52.7244 64.8571L51.9078 64.8554L51.9094 63.691H52.5075C52.7978 63.6918 53.003 63.7068 53.1231 63.7343C53.2449 63.7619 53.3416 63.8236 53.415 63.9178C53.4884 64.0104 53.5234 64.1255 53.5234 64.2607C53.5234 64.4258 53.4734 64.5651 53.3733 64.6827C53.2715 64.7995 53.0555 64.8571 52.7244 64.8571ZM51.9136 61.8709H51.4698L51.4648 65.2324L52.7419 65.2341C53.224 65.2358 53.5551 65.1382 53.7328 64.9421C53.9096 64.747 54.0006 64.5209 54.0006 64.2607C54.0006 64.1022 53.9639 63.947 53.8905 63.7969C53.8179 63.6468 53.6969 63.5275 53.5293 63.4407C53.36 63.354 53.0889 63.3089 52.7152 63.3089L51.9111 63.3073L51.9136 61.8709Z" fill="#1A1A1A"/>
<path fill-rule="evenodd" clip-rule="evenodd" d="M33.997 4.37952C33.6771 5.39474 33.3651 6.38476 33.0452 7.30632C23.4204 35.6986 19.2739 48.5754 17.4893 54.7754C7.23253 50.6011 0 40.5415 0 28.7852C0 13.2903 12.5604 0.729004 28.0562 0.729004C30.418 0.729004 32.7118 1.0248 34.9033 1.57425C34.5866 2.50843 34.2885 3.45444 33.997 4.37952ZM31.0877 39.0014L35.5192 36.4728C42.1292 32.6508 45.5943 30.3685 47.1298 29.3572L47.1298 29.3571C47.3819 29.1911 47.5819 29.0594 47.7353 28.9606C46.3404 24.3071 45.3208 20.4758 44.5196 17.4651C43.0499 11.9426 42.315 9.18121 41.3463 9.17135C40.067 9.15755 38.0133 16.1029 35.3828 24.9988C34.0838 29.3917 32.6442 34.2603 31.0877 39.0014ZM49.3368 35.6416C45.1527 38.5296 37.87 43.4263 33.1006 46.2183L28.333 49.0113C27.6518 51.8312 27.2896 54.4664 26.9688 56.813C27.33 56.8274 27.693 56.8408 28.0569 56.8408C37.9112 56.8408 46.5698 51.7586 51.575 44.0734L49.3368 35.6416Z" fill="#13D0CA"/>
</svg>
